# Blender v2.79 (sub 0) OBJ File: ''
# www.blender.org
mtllib Coin.mtl
o Coin
v -0.287012 -0.100000 -0.307090
v 0.000000 -0.100000 -0.250000
v 0.000000 -0.200000 -0.250000
v -0.287012 -0.200000 -0.307090
v -0.707107 0.200000 -0.292893
v -0.923880 0.200000 -0.617316
v -0.923880 -0.200000 -0.617316
v -0.707107 -0.200000 -0.292893
v 0.287013 -0.100000 -0.307090
v 0.287013 -0.200000 -0.307090
v -0.382683 0.200000 -0.076120
v -0.382683 -0.200000 -0.076120
v 0.530330 -0.100000 -0.469670
v 0.530330 -0.200000 -0.469670
v 0.000000 0.200000 0.000000
v 0.000000 -0.200000 0.000000
v 0.692910 -0.100000 -0.712987
v 0.692910 -0.200000 -0.712987
v 0.382683 0.200000 -0.076121
v 0.382683 -0.200000 -0.076120
v 0.750000 -0.100000 -1.000000
v 0.750000 -0.200000 -1.000000
v 0.707107 0.200000 -0.292893
v 0.707107 -0.200000 -0.292893
v 0.692910 -0.100000 -1.287013
v 0.692910 -0.200000 -1.287013
v 0.923880 0.200000 -0.617316
v 0.923880 -0.200000 -0.617316
v 0.530330 -0.100000 -1.530330
v 0.530330 -0.200000 -1.530330
v 0.000000 -0.100000 -1.750000
v -0.287012 -0.100000 -1.692910
v -0.287012 -0.200000 -1.692910
v 0.000000 -0.200000 -1.750000
v 1.000000 0.200000 -1.000000
v 1.000000 -0.200000 -1.000000
v 0.287013 -0.100000 -1.692910
v 0.287013 -0.200000 -1.692910
v 0.000000 -0.100000 -1.000000
v 0.923880 -0.200000 -1.382683
v -1.000000 -0.200000 -1.000000
v -0.750000 -0.200000 -1.000000
v -0.692910 -0.200000 -0.712987
v -0.923879 -0.200000 -1.382684
v -0.692910 -0.200000 -1.287013
v -0.707107 -0.200000 -1.707107
v -0.530330 -0.200000 -1.530330
v -0.382683 -0.200000 -1.923880
v 0.000000 -0.200000 -2.000000
v 0.382683 -0.200000 -1.923880
v 0.707107 -0.200000 -1.707107
v -0.530330 -0.200000 -0.469670
v -1.000000 0.200000 -1.000000
v -0.530330 -0.100000 -0.469670
v -0.923879 0.200000 -1.382684
v -0.692910 -0.100000 -0.712987
v -0.707107 0.200000 -1.707107
v 0.000000 0.200000 -2.000000
v 0.382683 0.200000 -1.923880
v -0.750000 -0.100000 -1.000000
v -0.382683 0.200000 -1.923880
v 0.707107 0.200000 -1.707107
v -0.692910 -0.100000 -1.287013
v 0.923880 0.200000 -1.382683
v -0.530330 -0.100000 -1.530330
v -0.287012 0.100000 -0.307090
v -0.287012 0.200000 -0.307090
v 0.000000 0.200000 -0.250000
v 0.000000 0.100000 -0.250000
v 0.287013 0.200000 -0.307090
v 0.287013 0.100000 -0.307090
v 0.530330 0.200000 -0.469670
v 0.530330 0.100000 -0.469670
v 0.692910 0.200000 -0.712987
v 0.692910 0.100000 -0.712987
v 0.750000 0.200000 -1.000000
v 0.750000 0.100000 -1.000000
v 0.692910 0.200000 -1.287013
v 0.692910 0.100000 -1.287013
v 0.530330 0.200000 -1.530330
v 0.530330 0.100000 -1.530330
v 0.000000 0.100000 -1.750000
v 0.000000 0.200000 -1.750000
v -0.287012 0.200000 -1.692910
v -0.287012 0.100000 -1.692910
v 0.287013 0.200000 -1.692910
v 0.287013 0.100000 -1.692910
v 0.000000 0.100000 -1.000000
v -0.692910 0.200000 -0.712987
v -0.750000 0.200000 -1.000000
v -0.692910 0.200000 -1.287013
v -0.530330 0.200000 -1.530330
v -0.530330 0.200000 -0.469670
v -0.530330 0.100000 -0.469670
v -0.692910 0.100000 -0.712987
v -0.750000 0.100000 -1.000000
v -0.692910 0.100000 -1.287013
v -0.530330 0.100000 -1.530330
vt 0.750000 0.956024
vt 0.703125 0.972043
vt 0.703125 0.956024
vt 0.812500 0.951231
vt 0.875000 0.888747
vt 0.875000 0.951231
vt 0.046875 0.956025
vt 0.000000 0.972043
vt 0.000000 0.956025
vt 0.937500 0.888747
vt 0.937500 0.951231
vt 0.093750 0.956025
vt 0.046875 0.972043
vt 1.000000 0.888746
vt 1.000000 0.951231
vt 0.140625 0.956025
vt 0.093750 0.972043
vt 0.000000 0.951231
vt 0.062500 0.888747
vt 0.062500 0.951231
vt 0.187500 0.956024
vt 0.140625 0.972043
vt 0.125000 0.888747
vt 0.125000 0.951231
vt 0.234374 0.956024
vt 0.187500 0.972043
vt 0.187500 0.888747
vt 0.187500 0.951231
vt 0.281249 0.956024
vt 0.234375 0.972043
vt 0.421874 0.956024
vt 0.374999 0.972043
vt 0.374999 0.956024
vt 0.250000 0.888747
vt 0.250000 0.951231
vt 0.328124 0.956024
vt 0.281249 0.972043
vt 0.548973 0.220944
vt 0.565386 0.137520
vt 0.766879 0.220488
vt 0.076700 0.707927
vt 0.111728 0.632927
vt 0.122379 0.689563
vt 0.456337 0.636531
vt 0.396456 0.579381
vt 0.442135 0.561017
vt 0.062498 0.632413
vt 0.123561 0.576527
vt 0.395274 0.692417
vt 0.407107 0.636016
vt 0.121631 0.493773
vt 0.078276 0.557212
vt 0.440559 0.711732
vt 0.362758 0.739996
vt 0.204326 0.497434
vt 0.156077 0.528948
vt 0.332873 0.817190
vt 0.397204 0.775171
vt 0.185962 0.451754
vt 0.260962 0.486782
vt 0.182157 0.815613
vt 0.257873 0.782161
vt 0.257358 0.831391
vt 0.314509 0.771510
vt 0.261477 0.437553
vt 0.317363 0.498616
vt 0.118719 0.772259
vt 0.201472 0.770328
vt 0.400116 0.496685
vt 0.336677 0.453331
vt 0.153893 0.737812
vt 0.364942 0.531132
vt 0.750000 0.951231
vt 0.812500 0.888747
vt 0.656250 0.972043
vt 0.656250 0.956024
vt 0.687500 0.951231
vt 0.750000 0.888747
vt 0.609375 0.972043
vt 0.609375 0.956024
vt 0.625000 0.951231
vt 0.687500 0.888747
vt 0.437500 0.951231
vt 0.500000 0.888747
vt 0.500000 0.951231
vt 0.562499 0.972042
vt 0.562499 0.956024
vt 0.562500 0.951231
vt 0.625000 0.888747
vt 0.375000 0.951231
vt 0.437500 0.888747
vt 0.515624 0.972042
vt 0.515624 0.956024
vt 0.562500 0.888747
vt 0.312500 0.951231
vt 0.375000 0.888747
vt 0.468749 0.972042
vt 0.468749 0.956024
vt 0.328124 0.972043
vt 0.312500 0.888747
vt 0.421874 0.972042
vt 0.703125 0.972043
vt 0.750000 0.988061
vt 0.703125 0.988061
vt 0.000000 0.972043
vt 0.046875 0.988061
vt 0.000000 0.988061
vt 0.046875 0.972043
vt 0.093750 0.988061
vt 0.093750 0.972043
vt 0.140625 0.988061
vt 0.140625 0.972043
vt 0.187500 0.988061
vt 0.187500 0.972043
vt 0.234375 0.988061
vt 0.234375 0.972043
vt 0.281250 0.988061
vt 0.375000 0.972043
vt 0.421875 0.988061
vt 0.375000 0.988061
vt 0.281250 0.972043
vt 0.328125 0.988061
vt 0.548973 0.659211
vt 0.565810 0.575871
vt 0.766879 0.659862
vt 0.077654 0.172394
vt 0.111720 0.247835
vt 0.062488 0.247720
vt 0.395740 0.305020
vt 0.456347 0.248639
vt 0.441181 0.323966
vt 0.122831 0.304382
vt 0.077302 0.323117
vt 0.396003 0.191977
vt 0.441532 0.173243
vt 0.119842 0.387105
vt 0.364099 0.143986
vt 0.398992 0.109255
vt 0.202577 0.384502
vt 0.183631 0.429943
vt 0.335203 0.066417
vt 0.259072 0.395877
vt 0.258957 0.445109
vt 0.259762 0.100483
vt 0.184480 0.066065
vt 0.259877 0.051250
vt 0.316257 0.111857
vt 0.315620 0.384766
vt 0.334354 0.430295
vt 0.203215 0.111594
vt 0.120492 0.108605
vt 0.398342 0.387755
vt 0.123095 0.191340
vt 0.656250 0.972043
vt 0.656250 0.988061
vt 0.609375 0.972043
vt 0.609375 0.988061
vt 0.562500 0.972043
vt 0.562500 0.988061
vt 0.515625 0.972043
vt 0.515625 0.988061
vt 0.468750 0.972043
vt 0.468750 0.988061
vt 0.328125 0.972043
vt 0.421875 0.972043
vt 0.565311 0.742650
vt 0.612474 0.066727
vt 0.612336 0.813485
vt 0.683069 0.019343
vt 0.682889 0.860932
vt 0.766424 0.002581
vt 0.766228 0.877768
vt 0.849848 0.018994
vt 0.849667 0.861430
vt 0.920640 0.066082
vt 0.920502 0.814405
vt 0.968024 0.136678
vt 0.967949 0.743853
vt 0.984786 0.220032
vt 0.984786 0.660513
vt 0.968373 0.303456
vt 0.968448 0.577074
vt 0.921285 0.374249
vt 0.767335 0.438395
vt 0.683911 0.421982
vt 0.921423 0.506239
vt 0.684092 0.458294
vt 0.767531 0.441956
vt 0.850690 0.421633
vt 0.613119 0.374894
vt 0.850870 0.458792
vt 0.613257 0.505319
vt 0.565734 0.304298
vt 0.750000 0.972043
vt 0.000000 0.888746
vt 0.750000 0.972043
vt 0.407114 0.248525
vt 0.154736 0.352373
vt 0.155224 0.143498
vt 0.363611 0.352861
vn 0.0000 -0.6657 -0.7462
vn 0.2515 -0.7538 -0.6071
vn 0.2856 -0.6657 -0.6894
vn -0.6894 0.6657 0.2856
vn -0.5276 -0.6657 0.5276
vn -0.5276 0.6657 0.5276
vn -0.2856 -0.6657 -0.6894
vn 0.0000 -0.7538 -0.6571
vn -0.2856 -0.6657 0.6894
vn -0.2856 0.6657 0.6894
vn -0.5276 -0.6657 -0.5276
vn -0.2515 -0.7538 -0.6071
vn -0.0000 -0.6657 0.7462
vn 0.0000 0.6657 0.7462
vn -0.6894 -0.6657 -0.2856
vn -0.4647 -0.7538 -0.4647
vn 0.2856 -0.6657 0.6894
vn 0.2856 0.6657 0.6894
vn -0.7462 -0.6657 0.0000
vn -0.6071 -0.7538 -0.2515
vn 0.5276 -0.6657 0.5276
vn 0.5276 0.6657 0.5276
vn -0.6894 -0.6657 0.2856
vn -0.6571 -0.7538 0.0000
vn 0.6894 -0.6657 0.2856
vn 0.6894 0.6657 0.2856
vn -0.6071 -0.7538 0.2515
vn 0.0000 -0.7538 0.6571
vn 0.7462 -0.6657 -0.0000
vn 0.7462 0.6657 -0.0000
vn -0.4647 -0.7538 0.4647
vn 0.0000 -1.0000 -0.0000
vn 0.6894 -0.6657 -0.2856
vn 0.6071 -0.7538 -0.2515
vn 0.6071 -0.7538 0.2515
vn 0.6571 -0.7538 -0.0000
vn 0.4647 -0.7538 0.4647
vn 0.2515 -0.7538 0.6071
vn 0.5276 -0.6657 -0.5276
vn -0.2515 -0.7538 0.6071
vn 0.4647 -0.7538 -0.4647
vn -0.7462 0.6657 -0.0000
vn -0.6894 0.6657 -0.2856
vn -0.5276 0.6657 -0.5276
vn 0.2856 0.6657 -0.6894
vn -0.0000 0.6657 -0.7462
vn -0.2856 0.6657 -0.6894
vn 0.5276 0.6657 -0.5276
vn 0.6894 0.6657 -0.2856
vn 0.2515 0.7538 -0.6071
vn 0.0000 0.7538 -0.6571
vn -0.2515 0.7538 -0.6071
vn -0.4647 0.7538 -0.4647
vn -0.6071 0.7538 -0.2515
vn -0.6571 0.7538 0.0000
vn -0.6071 0.7538 0.2515
vn 0.0000 0.7538 0.6571
vn -0.4647 0.7538 0.4647
vn 0.0000 1.0000 0.0000
vn 0.6071 0.7538 -0.2515
vn 0.6071 0.7538 0.2515
vn 0.4647 0.7538 0.4647
vn 0.2515 0.7538 0.6071
vn -0.2515 0.7538 0.6071
vn 0.4647 0.7538 -0.4647
vn 0.6571 0.7538 -0.0000
usemtl Coin
s 1
f 2/1/1 4/2/2 1/3/3
f 6/4/4 8/5/5 5/6/6
f 9/7/7 3/8/8 2/9/1
f 5/6/6 12/10/9 11/11/10
f 13/12/11 10/13/12 9/7/7
f 11/11/10 16/14/13 15/15/14
f 17/16/15 14/17/16 13/12/11
f 15/18/14 20/19/17 19/20/18
f 21/21/19 18/22/20 17/16/15
f 19/20/18 24/23/21 23/24/22
f 25/25/23 22/26/24 21/21/19
f 23/24/22 28/27/25 27/28/26
f 29/29/5 26/30/27 25/25/23
f 32/31/17 34/32/28 31/33/13
f 27/28/26 36/34/29 35/35/30
f 37/36/9 30/37/31 29/29/5
f 21/38/19 17/39/15 39/40/32
f 40/41/33 22/42/24 26/43/27
f 41/44/19 43/45/34 7/46/23
f 36/47/29 18/48/20 22/42/24
f 41/44/19 45/49/35 42/50/36
f 24/51/21 18/48/20 28/52/25
f 44/53/15 47/54/37 45/49/35
f 24/51/21 10/55/12 14/56/16
f 48/57/7 47/54/37 46/58/11
f 20/59/17 3/60/8 10/55/12
f 50/61/3 34/62/28 49/63/1
f 49/63/1 33/64/38 48/57/7
f 16/65/13 4/66/2 3/60/8
f 51/67/39 38/68/40 50/61/3
f 8/69/5 4/66/2 12/70/9
f 51/67/39 26/43/27 30/71/31
f 8/69/5 43/45/34 52/72/41
f 53/73/42 7/74/23 6/4/4
f 1/3/3 52/75/41 54/76/39
f 55/77/43 41/78/19 53/73/42
f 54/76/39 43/79/34 56/80/33
f 57/81/44 44/82/15 55/77/43
f 59/83/45 49/84/1 58/85/46
f 56/80/33 42/86/36 60/87/29
f 61/88/47 46/89/11 57/81/44
f 62/90/48 50/91/3 59/83/45
f 60/87/29 45/92/35 63/93/25
f 58/85/46 48/94/7 61/88/47
f 64/95/49 51/96/39 62/90/48
f 63/93/25 47/97/37 65/98/21
f 31/33/13 38/99/40 37/36/9
f 35/35/30 40/100/33 64/95/49
f 65/98/21 33/101/38 32/31/17
f 67/102/50 69/103/46 66/104/45
f 68/105/51 71/106/47 69/107/46
f 70/108/52 73/109/44 71/106/47
f 72/110/53 75/111/43 73/109/44
f 74/112/54 77/113/42 75/111/43
f 76/114/55 79/115/4 77/113/42
f 78/116/56 81/117/6 79/115/4
f 83/118/57 85/119/18 82/120/14
f 80/121/58 87/122/10 81/117/6
f 77/123/42 79/124/4 88/125/59
f 64/126/49 76/127/55 35/128/30
f 89/129/60 53/130/42 6/131/4
f 35/128/30 74/132/54 27/133/26
f 53/130/42 91/134/61 55/135/43
f 74/132/54 23/136/22 27/133/26
f 55/135/43 92/137/62 57/138/44
f 23/136/22 70/139/52 19/140/18
f 92/137/62 61/141/47 57/138/44
f 19/140/18 68/142/51 15/143/14
f 83/144/57 59/145/45 58/146/46
f 84/147/63 58/146/46 61/141/47
f 15/143/14 67/148/50 11/149/10
f 86/150/64 62/151/48 59/145/45
f 67/148/50 5/152/6 11/149/10
f 62/151/48 78/153/56 64/126/49
f 5/152/6 89/129/60 6/131/4
f 93/154/65 66/104/45 94/155/48
f 89/156/60 94/155/48 95/157/49
f 90/158/66 95/157/49 96/159/30
f 91/160/61 96/159/30 97/161/26
f 92/162/62 97/161/26 98/163/22
f 86/164/64 82/120/14 87/122/10
f 84/165/63 98/163/22 85/119/18
f 75/166/43 77/123/42 88/125/59
f 17/39/15 13/167/11 39/40/32
f 73/168/44 75/166/43 88/125/59
f 13/167/11 9/169/7 39/40/32
f 71/170/47 73/168/44 88/125/59
f 9/169/7 2/171/1 39/40/32
f 69/172/46 71/170/47 88/125/59
f 2/171/1 1/173/3 39/40/32
f 66/174/45 69/172/46 88/125/59
f 1/173/3 54/175/39 39/40/32
f 94/176/48 66/174/45 88/125/59
f 54/175/39 56/177/33 39/40/32
f 95/178/49 94/176/48 88/125/59
f 56/177/33 60/179/29 39/40/32
f 96/180/30 95/178/49 88/125/59
f 60/179/29 63/181/25 39/40/32
f 97/182/26 96/180/30 88/125/59
f 63/181/25 65/183/21 39/40/32
f 31/184/13 37/185/9 39/40/32
f 98/186/22 97/182/26 88/125/59
f 87/187/10 82/188/14 88/125/59
f 65/183/21 32/189/17 39/40/32
f 37/185/9 29/190/5 39/40/32
f 85/191/18 98/186/22 88/125/59
f 81/192/6 87/187/10 88/125/59
f 32/189/17 31/184/13 39/40/32
f 29/190/5 25/193/23 39/40/32
f 82/188/14 85/191/18 88/125/59
f 79/124/4 81/192/6 88/125/59
f 25/193/23 21/38/19 39/40/32
f 2/1/1 3/194/8 4/2/2
f 6/4/4 7/74/23 8/5/5
f 9/7/7 10/13/12 3/8/8
f 5/6/6 8/5/5 12/10/9
f 13/12/11 14/17/16 10/13/12
f 11/11/10 12/10/9 16/14/13
f 17/16/15 18/22/20 14/17/16
f 15/18/14 16/195/13 20/19/17
f 21/21/19 22/26/24 18/22/20
f 19/20/18 20/19/17 24/23/21
f 25/25/23 26/30/27 22/26/24
f 23/24/22 24/23/21 28/27/25
f 29/29/5 30/37/31 26/30/27
f 32/31/17 33/101/38 34/32/28
f 27/28/26 28/27/25 36/34/29
f 37/36/9 38/99/40 30/37/31
f 40/41/33 36/47/29 22/42/24
f 41/44/19 42/50/36 43/45/34
f 36/47/29 28/52/25 18/48/20
f 41/44/19 44/53/15 45/49/35
f 24/51/21 14/56/16 18/48/20
f 44/53/15 46/58/11 47/54/37
f 24/51/21 20/59/17 10/55/12
f 48/57/7 33/64/38 47/54/37
f 20/59/17 16/65/13 3/60/8
f 50/61/3 38/68/40 34/62/28
f 49/63/1 34/62/28 33/64/38
f 16/65/13 12/70/9 4/66/2
f 51/67/39 30/71/31 38/68/40
f 8/69/5 52/72/41 4/66/2
f 51/67/39 40/41/33 26/43/27
f 8/69/5 7/46/23 43/45/34
f 53/73/42 41/78/19 7/74/23
f 1/3/3 4/2/2 52/75/41
f 55/77/43 44/82/15 41/78/19
f 54/76/39 52/75/41 43/79/34
f 57/81/44 46/89/11 44/82/15
f 59/83/45 50/91/3 49/84/1
f 56/80/33 43/79/34 42/86/36
f 61/88/47 48/94/7 46/89/11
f 62/90/48 51/96/39 50/91/3
f 60/87/29 42/86/36 45/92/35
f 58/85/46 49/84/1 48/94/7
f 64/95/49 40/100/33 51/96/39
f 63/93/25 45/92/35 47/97/37
f 31/33/13 34/32/28 38/99/40
f 35/35/30 36/34/29 40/100/33
f 65/98/21 47/97/37 33/101/38
f 67/102/50 68/196/51 69/103/46
f 68/105/51 70/108/52 71/106/47
f 70/108/52 72/110/53 73/109/44
f 72/110/53 74/112/54 75/111/43
f 74/112/54 76/114/55 77/113/42
f 76/114/55 78/116/56 79/115/4
f 78/116/56 80/121/58 81/117/6
f 83/118/57 84/165/63 85/119/18
f 80/121/58 86/164/64 87/122/10
f 64/126/49 78/153/56 76/127/55
f 89/129/60 90/197/66 53/130/42
f 35/128/30 76/127/55 74/132/54
f 53/130/42 90/197/66 91/134/61
f 74/132/54 72/198/53 23/136/22
f 55/135/43 91/134/61 92/137/62
f 23/136/22 72/198/53 70/139/52
f 92/137/62 84/147/63 61/141/47
f 19/140/18 70/139/52 68/142/51
f 83/144/57 86/150/64 59/145/45
f 84/147/63 83/144/57 58/146/46
f 15/143/14 68/142/51 67/148/50
f 86/150/64 80/199/58 62/151/48
f 67/148/50 93/200/65 5/152/6
f 62/151/48 80/199/58 78/153/56
f 5/152/6 93/200/65 89/129/60
f 93/154/65 67/102/50 66/104/45
f 89/156/60 93/154/65 94/155/48
f 90/158/66 89/156/60 95/157/49
f 91/160/61 90/158/66 96/159/30
f 92/162/62 91/160/61 97/161/26
f 86/164/64 83/118/57 82/120/14
f 84/165/63 92/162/62 98/163/22
