# Blender v2.79 (sub 0) OBJ File: ''
# www.blender.org
mtllib Sword.mtl
o Sword_Sword_Cylinder.003
v -0.029702 0.017148 -0.334553
v -0.034086 0.019680 -0.413271
v -0.034086 -0.019680 -0.413271
v -0.029702 -0.017148 -0.334553
v -0.029702 0.017148 -0.177116
v -0.029702 -0.017148 -0.177116
v -0.034086 -0.019680 -0.098398
v -0.034086 0.019680 -0.098398
v 0.000000 0.034297 -0.177116
v 0.000000 0.039359 -0.098398
v 0.000000 -0.034297 -0.177116
v 0.000000 -0.039359 -0.098398
v -0.027295 0.015759 -0.255834
v -0.027295 -0.015759 -0.255834
v 0.000000 0.031517 -0.255834
v 0.000000 0.034297 -0.334553
v 0.000000 -0.031517 -0.255834
v -0.051129 0.029519 -0.039359
v -0.051129 -0.029519 -0.039359
v -0.034086 -0.019680 0.000000
v -0.034086 0.019680 0.000000
v 0.000000 -0.059039 -0.039359
v 0.000000 -0.039359 0.000000
v 0.000000 0.059039 -0.039359
v 0.000000 0.039359 0.000000
v -0.098398 0.014760 -0.413522
v -0.098398 -0.014760 -0.413522
v -0.196796 -0.014760 -0.491989
v -0.177116 -0.029519 -0.491989
v -0.078718 -0.029519 -0.432699
v -0.196796 0.014760 -0.491989
v -0.078718 0.029519 -0.432699
v -0.177116 0.029519 -0.491989
v 0.000000 -0.039359 -0.452630
v 0.000000 -0.039665 -0.432950
v -0.078718 -0.039206 -0.462470
v -0.137757 -0.039359 -0.491989
v -0.078718 0.039206 -0.462470
v -0.137757 0.039359 -0.491989
v 0.000000 0.039359 -0.432950
v 0.000000 0.038901 -0.452630
v -0.059039 0.000000 -0.460010
v 0.000000 -0.018989 -1.869558
v -0.043398 -0.009840 -1.869558
v 0.000000 0.000229 -1.999997
v -0.057698 -0.009840 -0.515518
v -0.078337 0.000000 -0.516317
v -0.053904 0.000000 -1.869558
v 0.000000 -0.019680 -0.482629
v -0.045941 -0.011704 -0.514929
v -0.024391 -0.006815 -0.514927
v 0.000000 -0.013663 -0.503168
v 0.000000 -0.019680 -0.452630
v -0.046247 -0.009840 -0.458411
v -0.030678 -0.012521 -1.816263
v -0.009128 -0.007632 -1.816261
v 0.000000 -0.006835 -0.512625
v 0.000000 -0.006835 -1.841151
v 0.029702 0.017148 -0.334553
v 0.029702 -0.017148 -0.334553
v 0.034086 -0.019680 -0.413271
v 0.034086 0.019680 -0.413271
v 0.029702 0.017148 -0.177116
v 0.034086 0.019680 -0.098398
v 0.034086 -0.019680 -0.098398
v 0.029702 -0.017148 -0.177116
v 0.027295 -0.015759 -0.255834
v 0.000000 -0.034297 -0.334553
v 0.027295 0.015759 -0.255834
v 0.051129 0.029519 -0.039359
v 0.051129 -0.029519 -0.039359
v 0.098398 -0.014760 -0.413522
v 0.098398 0.014760 -0.413522
v 0.078718 -0.029519 -0.432699
v 0.177116 -0.029519 -0.491989
v 0.196796 -0.014760 -0.491989
v 0.196796 0.014760 -0.491989
v 0.078718 0.029519 -0.432699
v 0.177116 0.029519 -0.491989
v 0.078718 -0.039359 -0.462470
v 0.137757 -0.039206 -0.491989
v 0.078718 0.039359 -0.462470
v 0.137757 0.039206 -0.491989
v 0.059039 0.000000 -0.460010
v 0.043398 -0.009840 -1.869558
v 0.057698 -0.009840 -0.515518
v 0.053904 0.000000 -1.869558
v 0.078337 0.000000 -0.516317
v 0.024391 -0.006815 -0.514927
v 0.045941 -0.011704 -0.514929
v 0.046247 -0.009840 -0.458411
v 0.009128 -0.007632 -1.816261
v 0.030678 -0.012521 -1.816263
v 0.000000 0.018989 -1.869558
v -0.043398 0.009840 -1.869558
v -0.057698 0.009840 -0.515518
v 0.000000 0.018989 -0.482629
v 0.000000 0.013663 -0.503168
v -0.024391 0.006815 -0.514927
v -0.045941 0.011704 -0.514929
v 0.000000 0.019680 -0.452630
v -0.046247 0.009840 -0.458411
v -0.009128 0.007632 -1.816261
v -0.030678 0.012521 -1.816263
v 0.000000 0.006835 -0.512625
v 0.000000 0.006835 -1.841151
v 0.034086 0.019680 0.000000
v 0.034086 -0.019680 0.000000
v 0.043398 0.009840 -1.869558
v 0.057698 0.009840 -0.515518
v 0.045941 0.011704 -0.514929
v 0.024391 0.006815 -0.514927
v 0.046247 0.009840 -0.458411
v 0.030678 0.012521 -1.816263
v 0.009128 0.007632 -1.816261
v 0.000000 0.000000 0.000000
vt 0.279460 0.344071
vt 0.258146 0.285081
vt 0.283267 0.287009
vt 0.261072 0.168145
vt 0.285637 0.109780
vt 0.286428 0.167525
vt 0.311988 0.167774
vt 0.313638 0.110095
vt 0.236096 0.169754
vt 0.257490 0.110733
vt 0.262187 0.226820
vt 0.285990 0.227413
vt 0.308630 0.287967
vt 0.310323 0.228062
vt 0.239066 0.226357
vt 0.256178 0.072654
vt 0.284182 0.048933
vt 0.283832 0.073871
vt 0.221830 0.068958
vt 0.258791 0.048490
vt 0.311238 0.074312
vt 0.310485 0.047704
vt 0.284346 0.109507
vt 0.310492 0.109024
vt 0.752494 0.423010
vt 0.793337 0.399150
vt 0.792999 0.430427
vt 0.751647 0.406218
vt 0.682426 0.390245
vt 0.759237 0.389054
vt 0.670879 0.425928
vt 0.682727 0.439555
vt 0.759822 0.440044
vt 0.809614 0.359410
vt 0.750494 0.370114
vt 0.704900 0.374286
vt 0.705535 0.455339
vt 0.751252 0.458927
vt 0.808928 0.469044
vt 0.813124 0.455387
vt 0.562429 0.414880
vt 0.577275 0.385531
vt 0.577275 0.444228
vt 0.626685 0.444342
vt 0.626685 0.385417
vt 0.656148 0.436976
vt 0.670879 0.403831
vt 0.054177 0.875878
vt 0.094199 0.876253
vt 0.053985 1.000000
vt 0.110918 0.045134
vt 0.095430 0.044665
vt 0.055498 0.020672
vt 0.071078 0.044430
vt 0.055475 0.035470
vt 0.087644 0.003355
vt 0.085471 0.043914
vt 0.099325 0.004332
vt 0.108350 0.877153
vt 0.081125 0.827314
vt 0.055463 0.043062
vt 0.064559 0.825828
vt 0.054220 0.848021
vt 0.359223 0.287910
vt 0.334536 0.345727
vt 0.334011 0.288434
vt 0.341605 0.111402
vt 0.362763 0.171026
vt 0.337513 0.168974
vt 0.369624 0.113983
vt 0.387537 0.174048
vt 0.358490 0.229453
vt 0.384043 0.286432
vt 0.334665 0.228749
vt 0.381362 0.230151
vt 0.338085 0.112206
vt 0.368569 0.116231
vt 0.415974 0.070306
vt 0.401845 0.122185
vt 0.340109 0.073458
vt 0.242437 0.399152
vt 0.283285 0.423013
vt 0.242775 0.430431
vt 0.284132 0.406219
vt 0.353355 0.390246
vt 0.364903 0.403832
vt 0.364903 0.425929
vt 0.353056 0.439557
vt 0.275957 0.440051
vt 0.226153 0.359414
vt 0.276540 0.389053
vt 0.221830 0.373426
vt 0.330883 0.374335
vt 0.285287 0.370075
vt 0.330250 0.455295
vt 0.284530 0.458971
vt 0.226840 0.469047
vt 0.222646 0.455389
vt 0.458507 0.444343
vt 0.458507 0.385418
vt 0.473353 0.414880
vt 0.409097 0.444229
vt 0.379634 0.436977
vt 0.409097 0.385532
vt 0.014154 0.876130
vt 0.000004 0.044963
vt 0.015494 0.044541
vt 0.039846 0.044381
vt 0.025455 0.043821
vt 0.023407 0.003256
vt 0.011723 0.004197
vt 0.000000 0.876985
vt 0.027379 0.827231
vt 0.043949 0.825796
vt 0.233744 0.282299
vt 0.251683 0.341611
vt 0.221830 0.351453
vt 0.813939 0.373421
vt 0.165086 0.875967
vt 0.164895 1.000000
vt 0.125070 0.876206
vt 0.110919 0.044980
vt 0.126402 0.044562
vt 0.166411 0.020727
vt 0.150741 0.044349
vt 0.136358 0.043845
vt 0.134332 0.003313
vt 0.122656 0.004246
vt 0.110918 0.877044
vt 0.138294 0.827312
vt 0.166376 0.043039
vt 0.154858 0.825879
vt 0.166388 0.035450
vt 0.165130 0.848104
vt 0.362486 0.344930
vt 0.368961 0.040767
vt 0.372698 0.072526
vt 0.338441 0.044918
vt 0.402166 0.033454
vt 0.205102 0.876329
vt 0.221830 0.045152
vt 0.206348 0.044687
vt 0.182010 0.044398
vt 0.198545 0.003412
vt 0.196395 0.043938
vt 0.210219 0.004381
vt 0.219251 0.877212
vt 0.192030 0.827396
vt 0.175470 0.825911
vt 0.233880 0.043148
vt 0.250963 0.024245
vt 0.275874 0.029588
vt 0.243134 0.000000
vt 0.268045 0.005343
vt 0.226051 0.018902
vt 0.517891 0.443999
vt 0.552779 0.422245
vt 0.517891 0.429611
vt 0.517891 0.400149
vt 0.517891 0.385417
vt 0.552779 0.407514
vt 0.483003 0.422246
vt 0.483003 0.407514
vt 0.229208 0.113264
vt 0.656148 0.392782
vt 0.055530 0.000000
vt 0.397668 0.118140
vt 0.379634 0.392784
vt 0.306570 0.359410
vt 0.166443 0.000000
vt 0.391881 0.356598
vn -0.4866 0.6635 0.5683
vn -0.8649 -0.4994 0.0500
vn -0.8649 0.4994 0.0500
vn -0.8649 -0.4994 -0.0500
vn -0.8485 0.4899 -0.2000
vn -0.8649 0.4994 -0.0500
vn 0.0000 0.9988 -0.0500
vn 0.0000 0.9798 -0.2000
vn -0.0000 -0.9988 -0.0500
vn -0.8485 -0.4899 -0.2000
vn -0.8660 -0.5000 0.0000
vn -0.8660 0.5000 -0.0000
vn 0.0000 0.9988 0.0481
vn 0.0000 1.0000 -0.0000
vn 0.0000 -1.0000 0.0000
vn -0.8643 -0.4990 0.0636
vn -0.5454 0.3149 0.7768
vn -0.8643 0.4990 0.0636
vn -0.0000 -0.9980 0.0636
vn -0.5454 -0.3149 0.7768
vn 0.0000 0.9980 0.0636
vn 0.0000 0.6297 0.7768
vn -0.3100 0.4400 0.8428
vn -0.4886 -0.6606 0.5700
vn -0.3100 -0.4400 0.8428
vn -0.4465 -0.7828 -0.4335
vn -0.1246 -0.8949 0.4285
vn -0.8887 0.3610 -0.2827
vn -0.4465 0.7828 -0.4335
vn -0.1230 0.8955 0.4278
vn -0.0002 -0.7567 -0.6538
vn 0.1405 -0.8558 -0.4979
vn 0.0461 -0.8005 -0.5975
vn 0.0461 0.8005 -0.5975
vn 0.1425 0.8560 -0.4969
vn -0.0002 0.7535 -0.6575
vn 0.0000 0.9919 0.1273
vn -0.3422 -0.0000 -0.9396
vn -0.8887 -0.3610 -0.2827
vn -0.0000 -1.0000 -0.0044
vn -0.4742 -0.8729 -0.1151
vn 0.0000 0.0017 -1.0000
vn -0.9898 0.0000 0.1424
vn -0.3155 -0.9478 0.0470
vn 0.0000 -0.9949 -0.1011
vn 0.1197 -0.9652 -0.2323
vn 0.0000 -0.9207 -0.3903
vn -0.1629 -0.6421 -0.7491
vn -0.0323 -0.9986 -0.0419
vn -0.9821 -0.0003 -0.1882
vn -0.0061 -0.9995 0.0307
vn 0.0000 -0.9461 -0.3239
vn 0.1614 -0.9868 0.0161
vn 0.0000 -0.9593 0.2824
vn 0.8649 -0.4994 0.0500
vn 0.4866 0.6635 0.5683
vn 0.8649 0.4994 0.0500
vn 0.8485 0.4899 -0.2000
vn 0.8649 -0.4994 -0.0500
vn 0.8649 0.4994 -0.0500
vn 0.8485 -0.4899 -0.2000
vn 0.8660 -0.5000 0.0000
vn 0.0000 -0.9988 0.0485
vn 0.8660 0.5000 -0.0000
vn 0.0000 -0.9798 -0.2000
vn 0.8643 0.4990 0.0636
vn 0.4886 -0.6606 0.5700
vn 0.3100 0.4400 0.8428
vn 0.3100 -0.4400 0.8428
vn 0.4458 -0.7832 -0.4335
vn 0.8887 -0.3610 -0.2827
vn 0.8887 0.3610 -0.2827
vn 0.4458 0.7832 -0.4335
vn 0.1235 0.8949 0.4289
vn 0.1250 -0.8943 0.4296
vn 0.0000 -0.9911 0.1333
vn -0.0477 -0.7989 -0.5996
vn -0.1376 -0.8577 -0.4953
vn -0.0477 0.7989 -0.5996
vn -0.1396 0.8580 -0.4943
vn 0.3422 0.0000 -0.9396
vn 0.4742 -0.8729 -0.1151
vn 0.9898 -0.0000 0.1424
vn 0.3155 -0.9478 0.0470
vn -0.1197 -0.9652 -0.2323
vn 0.0323 -0.9986 -0.0419
vn 0.1629 -0.6421 -0.7491
vn 0.9821 -0.0003 -0.1882
vn 0.0061 -0.9995 0.0307
vn -0.1614 -0.9868 0.0161
vn 0.0000 1.0000 -0.0027
vn -0.4744 0.8729 -0.1137
vn -0.3155 0.9478 0.0470
vn -0.0000 0.9949 -0.1010
vn 0.1190 0.9670 -0.2251
vn -0.0300 0.9988 -0.0398
vn -0.1588 0.6415 -0.7505
vn -0.0061 0.9995 0.0307
vn -0.0000 0.9461 -0.3239
vn 0.1614 0.9868 0.0161
vn 0.0000 0.9284 -0.3715
vn -0.0000 0.9593 0.2824
vn 0.5454 -0.3149 0.7768
vn 0.8643 -0.4990 0.0636
vn 0.5454 0.3149 0.7768
vn 0.0000 -0.6297 0.7768
vn 0.4744 0.8729 -0.1137
vn 0.3155 0.9478 0.0470
vn -0.1190 0.9670 -0.2251
vn 0.1588 0.6415 -0.7505
vn 0.0300 0.9988 -0.0398
vn 0.0061 0.9995 0.0307
vn -0.1614 0.9868 0.0161
vn 0.0000 0.0000 1.0000
vn -0.0000 0.6180 -0.7862
vn 0.0000 -0.6261 -0.7797
usemtl Sword
s 1
f 2/1/1 4/2/2 1/3/3
f 6/4/4 8/5/5 5/6/6
f 9/7/7 8/5/5 10/8/8
f 11/9/9 7/10/10 6/4/4
f 1/3/3 14/11/11 13/12/12
f 16/13/13 13/12/12 15/14/14
f 17/15/15 6/4/4 14/11/11
f 13/12/12 9/7/7 15/14/14
f 14/11/11 5/6/6 13/12/12
f 19/16/16 21/17/17 18/18/18
f 22/19/19 20/20/20 19/16/16
f 24/21/21 21/17/17 25/22/22
f 8/23/5 24/21/21 10/24/8
f 7/10/10 22/19/19 19/16/16
f 7/10/10 18/18/18 8/23/5
f 26/25/23 3/26/24 2/27/1
f 27/28/25 29/29/26 30/30/27
f 31/31/28 27/28/25 26/25/23
f 33/32/29 26/25/23 32/33/30
f 34/34/31 30/30/27 36/35/32
f 37/36/33 30/30/27 29/29/26
f 39/37/34 32/33/30 38/38/35
f 41/39/36 32/33/30 40/40/37
f 42/41/38 36/42/32 38/43/35
f 36/42/32 39/44/34 38/43/35
f 37/45/33 33/46/29 39/44/34
f 33/46/29 28/47/39 31/31/28
f 43/48/40 44/49/41 45/50/42
f 47/51/43 44/49/41 46/52/44
f 49/53/45 51/54/46 52/55/47
f 54/56/48 50/57/49 49/53/45
f 42/58/38 46/52/44 54/56/48
f 44/49/41 48/59/50 45/50/42
f 55/60/51 51/54/46 50/57/49
f 55/60/51 46/52/44 44/49/41
f 57/61/52 56/62/53 58/63/54
f 52/55/47 51/54/46 57/61/52
f 55/60/51 58/63/54 56/62/53
f 60/64/55 62/65/56 59/66/57
f 64/67/58 66/68/59 63/69/60
f 9/7/7 64/67/58 63/69/60
f 65/70/61 11/71/9 66/68/59
f 67/72/62 68/73/63 60/64/55
f 67/72/62 59/66/57 69/74/64
f 69/74/64 16/13/13 15/14/14
f 66/68/59 17/75/15 67/72/62
f 9/7/7 69/74/64 15/14/14
f 63/69/60 67/72/62 69/74/64
f 24/21/21 64/76/58 10/24/8
f 65/77/61 22/78/19 12/79/65
f 70/80/66 65/77/61 64/76/58
f 61/81/67 73/82/68 62/83/56
f 72/84/69 75/85/70 76/86/71
f 72/84/69 77/87/72 73/82/68
f 73/82/68 79/88/73 78/89/74
f 34/90/31 74/91/75 35/92/76
f 81/93/77 74/91/75 80/94/78
f 78/89/74 83/95/79 82/96/80
f 78/89/74 41/97/36 40/98/37
f 82/99/80 80/100/78 84/101/81
f 83/102/79 80/100/78 82/99/80
f 79/103/73 81/104/77 83/102/79
f 76/86/71 79/103/73 77/87/72
f 43/48/40 45/50/42 85/105/82
f 85/105/82 88/106/83 86/107/84
f 49/53/45 89/108/85 90/109/86
f 90/109/86 86/107/84 91/110/87
f 86/107/84 84/111/81 91/110/87
f 85/105/82 45/50/42 87/112/88
f 89/108/85 93/113/89 90/109/86
f 86/107/84 90/109/86 93/113/89
f 57/61/52 92/114/90 89/108/85
f 52/55/47 57/61/52 89/108/85
f 93/113/89 58/63/54 43/48/40
f 68/115/63 3/116/24 35/117/76
f 16/13/13 2/1/1 1/3/3
f 14/11/11 68/115/63 17/15/15
f 2/27/1 32/33/30 26/25/23
f 3/26/24 30/30/27 35/118/76
f 94/119/91 45/120/42 95/121/92
f 95/121/92 47/122/43 96/123/93
f 97/124/94 99/125/95 100/126/96
f 100/126/96 96/123/93 102/127/97
f 96/123/93 42/128/38 102/127/97
f 95/121/92 45/120/42 48/129/50
f 99/125/95 104/130/98 100/126/96
f 96/123/93 100/126/96 104/130/98
f 105/131/99 103/132/100 99/125/95
f 98/133/101 105/131/99 99/125/95
f 104/130/98 106/134/102 94/119/91
f 68/73/63 61/135/67 60/64/55
f 62/65/56 16/13/13 59/66/57
f 70/80/66 108/136/103 71/137/104
f 24/21/21 107/138/105 70/80/66
f 22/78/19 108/136/103 23/139/106
f 62/83/56 78/89/74 40/98/37
f 74/91/75 61/81/67 35/92/76
f 94/119/91 109/140/107 45/120/42
f 88/141/83 109/140/107 110/142/108
f 97/124/94 112/143/109 98/133/101
f 113/144/110 111/145/111 97/124/94
f 84/146/81 110/142/108 113/144/110
f 109/140/107 87/147/88 45/120/42
f 114/148/112 112/143/109 111/145/111
f 114/148/112 110/142/108 109/140/107
f 105/131/99 115/149/113 106/134/102
f 98/133/101 112/143/109 105/131/99
f 114/148/112 106/134/102 115/149/113
f 20/20/20 23/150/106 116/151/114
f 21/152/17 20/20/20 116/151/114
f 107/153/105 25/154/22 116/151/114
f 23/150/106 108/155/103 116/151/114
f 25/154/22 21/152/17 116/151/114
f 108/155/103 107/153/105 116/151/114
f 38/43/35 41/156/36 102/157/97
f 41/156/36 101/158/115 102/157/97
f 53/159/116 34/160/31 54/161/48
f 34/160/31 36/42/32 54/161/48
f 38/43/35 102/157/97 42/41/38
f 42/41/38 54/161/48 36/42/32
f 101/158/115 41/156/36 113/162/110
f 41/156/36 82/99/80 113/162/110
f 80/100/78 34/160/31 91/163/87
f 34/160/31 53/159/116 91/163/87
f 80/100/78 91/163/87 84/101/81
f 84/101/81 113/162/110 82/99/80
f 2/1/1 3/116/24 4/2/2
f 6/4/4 7/10/10 8/5/5
f 9/7/7 5/6/6 8/5/5
f 11/9/9 12/164/65 7/10/10
f 1/3/3 4/2/2 14/11/11
f 16/13/13 1/3/3 13/12/12
f 17/15/15 11/9/9 6/4/4
f 13/12/12 5/6/6 9/7/7
f 14/11/11 6/4/4 5/6/6
f 19/16/16 20/20/20 21/17/17
f 22/19/19 23/150/106 20/20/20
f 24/21/21 18/18/18 21/17/17
f 8/23/5 18/18/18 24/21/21
f 7/10/10 12/164/65 22/19/19
f 7/10/10 19/16/16 18/18/18
f 26/25/23 27/28/25 3/26/24
f 27/28/25 28/47/39 29/29/26
f 31/31/28 28/47/39 27/28/25
f 33/32/29 31/31/28 26/25/23
f 34/34/31 35/118/76 30/30/27
f 37/36/33 36/35/32 30/30/27
f 39/37/34 33/32/29 32/33/30
f 41/39/36 38/38/35 32/33/30
f 36/42/32 37/45/33 39/44/34
f 37/45/33 29/165/26 33/46/29
f 33/46/29 29/165/26 28/47/39
f 47/51/43 48/59/50 44/49/41
f 49/53/45 50/57/49 51/54/46
f 49/53/45 53/166/116 54/56/48
f 54/56/48 46/52/44 50/57/49
f 42/58/38 47/51/43 46/52/44
f 55/60/51 56/62/53 51/54/46
f 44/49/41 43/48/40 55/60/51
f 55/60/51 50/57/49 46/52/44
f 57/61/52 51/54/46 56/62/53
f 55/60/51 43/48/40 58/63/54
f 60/64/55 61/135/67 62/65/56
f 64/67/58 65/70/61 66/68/59
f 9/7/7 10/8/8 64/67/58
f 65/70/61 12/167/65 11/71/9
f 67/72/62 17/75/15 68/73/63
f 67/72/62 60/64/55 59/66/57
f 69/74/64 59/66/57 16/13/13
f 66/68/59 11/71/9 17/75/15
f 9/7/7 63/69/60 69/74/64
f 63/69/60 66/68/59 67/72/62
f 24/21/21 70/80/66 64/76/58
f 65/77/61 71/137/104 22/78/19
f 70/80/66 71/137/104 65/77/61
f 61/81/67 72/84/69 73/82/68
f 72/84/69 74/91/75 75/85/70
f 72/84/69 76/86/71 77/87/72
f 73/82/68 77/87/72 79/88/73
f 34/90/31 80/94/78 74/91/75
f 81/93/77 75/85/70 74/91/75
f 78/89/74 79/88/73 83/95/79
f 78/89/74 82/96/80 41/97/36
f 83/102/79 81/104/77 80/100/78
f 79/103/73 75/168/70 81/104/77
f 76/86/71 75/168/70 79/103/73
f 85/105/82 87/112/88 88/106/83
f 49/53/45 52/55/47 89/108/85
f 91/110/87 53/166/116 49/53/45
f 49/53/45 90/109/86 91/110/87
f 86/107/84 88/106/83 84/111/81
f 89/108/85 92/114/90 93/113/89
f 93/113/89 43/48/40 85/105/82
f 85/105/82 86/107/84 93/113/89
f 57/61/52 58/63/54 92/114/90
f 93/113/89 92/114/90 58/63/54
f 68/115/63 4/2/2 3/116/24
f 16/13/13 40/169/37 2/1/1
f 14/11/11 4/2/2 68/115/63
f 2/27/1 40/40/37 32/33/30
f 3/26/24 27/28/25 30/30/27
f 95/121/92 48/129/50 47/122/43
f 97/124/94 98/133/101 99/125/95
f 102/127/97 101/170/115 97/124/94
f 97/124/94 100/126/96 102/127/97
f 96/123/93 47/122/43 42/128/38
f 99/125/95 103/132/100 104/130/98
f 104/130/98 94/119/91 95/121/92
f 95/121/92 96/123/93 104/130/98
f 105/131/99 106/134/102 103/132/100
f 104/130/98 103/132/100 106/134/102
f 68/73/63 35/171/76 61/135/67
f 62/65/56 40/169/37 16/13/13
f 70/80/66 107/138/105 108/136/103
f 24/21/21 25/22/22 107/138/105
f 22/78/19 71/137/104 108/136/103
f 62/83/56 73/82/68 78/89/74
f 74/91/75 72/84/69 61/81/67
f 88/141/83 87/147/88 109/140/107
f 97/124/94 111/145/111 112/143/109
f 97/124/94 101/170/115 113/144/110
f 113/144/110 110/142/108 111/145/111
f 84/146/81 88/141/83 110/142/108
f 114/148/112 115/149/113 112/143/109
f 109/140/107 94/119/91 114/148/112
f 114/148/112 111/145/111 110/142/108
f 105/131/99 112/143/109 115/149/113
f 114/148/112 94/119/91 106/134/102
